<svg id="visual" viewBox="0 0 900 600" width="900" height="600" xmlns="http://www.w3.org/2000/svg" xmlns:xlink="http://www.w3.org/1999/xlink" version="1.1"><g stroke-width="1" stroke-linejoin="bevel"><path d="M487 296L408 309L505 365Z" fill="#112e42" stroke="#112e42"></path><path d="M408 309L379 390L505 365Z" fill="#277297" stroke="#277297"></path><path d="M487 296L437 203L408 309Z" fill="#19435d" stroke="#19435d"></path><path d="M408 309L309 371L379 390Z" fill="#277297" stroke="#277297"></path><path d="M507 474L566 428L505 365Z" fill="#081a28" stroke="#081a28"></path><path d="M505 365L586 287L487 296Z" fill="#277297" stroke="#277297"></path><path d="M487 296L510 208L437 203Z" fill="#0c2435" stroke="#0c2435"></path><path d="M379 390L507 474L505 365Z" fill="#205a7a" stroke="#205a7a"></path><path d="M566 428L586 287L505 365Z" fill="#1d4e6b" stroke="#1d4e6b"></path><path d="M586 287L510 208L487 296Z" fill="#00101c" stroke="#00101c"></path><path d="M269 332L309 371L408 309Z" fill="#112e42" stroke="#112e42"></path><path d="M379 390L405 531L507 474Z" fill="#277297" stroke="#277297"></path><path d="M309 371L339 461L379 390Z" fill="#112e42" stroke="#112e42"></path><path d="M296 222L269 332L408 309Z" fill="#081a28" stroke="#081a28"></path><path d="M309 371L192 374L339 461Z" fill="#19435d" stroke="#19435d"></path><path d="M339 461L405 531L379 390Z" fill="#0c2435" stroke="#0c2435"></path><path d="M437 203L296 222L408 309Z" fill="#297ea6" stroke="#297ea6"></path><path d="M586 287L577 184L510 208Z" fill="#19435d" stroke="#19435d"></path><path d="M497 65L373 118L437 203Z" fill="#00101c" stroke="#00101c"></path><path d="M437 203L373 118L296 222Z" fill="#246688" stroke="#246688"></path><path d="M497 65L437 203L510 208Z" fill="#19435d" stroke="#19435d"></path><path d="M220 167L212 329L296 222Z" fill="#1d4e6b" stroke="#1d4e6b"></path><path d="M296 222L212 329L269 332Z" fill="#19435d" stroke="#19435d"></path><path d="M269 332L192 374L309 371Z" fill="#112e42" stroke="#112e42"></path><path d="M279 600L395 600L405 531Z" fill="#1d4e6b" stroke="#1d4e6b"></path><path d="M671 481L679 433L566 428Z" fill="#19435d" stroke="#19435d"></path><path d="M566 428L679 433L586 287Z" fill="#00101c" stroke="#00101c"></path><path d="M586 287L728 231L577 184Z" fill="#1d4e6b" stroke="#1d4e6b"></path><path d="M629 514L566 428L507 474Z" fill="#081a28" stroke="#081a28"></path><path d="M508 600L629 514L507 474Z" fill="#297ea6" stroke="#297ea6"></path><path d="M629 514L671 481L566 428Z" fill="#1d4e6b" stroke="#1d4e6b"></path><path d="M212 329L192 374L269 332Z" fill="#297ea6" stroke="#297ea6"></path><path d="M405 531L508 600L507 474Z" fill="#112e42" stroke="#112e42"></path><path d="M279 600L405 531L339 461Z" fill="#00101c" stroke="#00101c"></path><path d="M405 531L395 600L508 600Z" fill="#19435d" stroke="#19435d"></path><path d="M799 373L731 305L679 433Z" fill="#19435d" stroke="#19435d"></path><path d="M679 433L731 305L586 287Z" fill="#081a28" stroke="#081a28"></path><path d="M615 109L497 65L577 184Z" fill="#1d4e6b" stroke="#1d4e6b"></path><path d="M577 184L497 65L510 208Z" fill="#00101c" stroke="#00101c"></path><path d="M728 231L615 109L577 184Z" fill="#112e42" stroke="#112e42"></path><path d="M218 124L220 167L296 222Z" fill="#19435d" stroke="#19435d"></path><path d="M212 329L117 378L192 374Z" fill="#297ea6" stroke="#297ea6"></path><path d="M218 124L296 222L373 118Z" fill="#19435d" stroke="#19435d"></path><path d="M731 305L728 231L586 287Z" fill="#00101c" stroke="#00101c"></path><path d="M234 600L279 600L339 461Z" fill="#0c2435" stroke="#0c2435"></path><path d="M629 514L681 600L671 481Z" fill="#00101c" stroke="#00101c"></path><path d="M806 492L799 373L679 433Z" fill="#19435d" stroke="#19435d"></path><path d="M508 600L631 600L629 514Z" fill="#19435d" stroke="#19435d"></path><path d="M436 0L310 61L373 118Z" fill="#0c2435" stroke="#0c2435"></path><path d="M117 378L160 467L192 374Z" fill="#112e42" stroke="#112e42"></path><path d="M192 374L160 467L339 461Z" fill="#15384f" stroke="#15384f"></path><path d="M310 61L218 124L373 118Z" fill="#0c2435" stroke="#0c2435"></path><path d="M66 330L117 378L212 329Z" fill="#297ea6" stroke="#297ea6"></path><path d="M137 164L212 329L220 167Z" fill="#19435d" stroke="#19435d"></path><path d="M160 467L234 600L339 461Z" fill="#277297" stroke="#277297"></path><path d="M481 0L436 0L497 65Z" fill="#246688" stroke="#246688"></path><path d="M497 65L436 0L373 118Z" fill="#297ea6" stroke="#297ea6"></path><path d="M576 0L481 0L497 65Z" fill="#00101c" stroke="#00101c"></path><path d="M728 231L673 77L615 109Z" fill="#205a7a" stroke="#205a7a"></path><path d="M615 109L576 0L497 65Z" fill="#277297" stroke="#277297"></path><path d="M631 600L681 600L629 514Z" fill="#0c2435" stroke="#0c2435"></path><path d="M806 492L679 433L671 481Z" fill="#081a28" stroke="#081a28"></path><path d="M731 305L820 268L728 231Z" fill="#246688" stroke="#246688"></path><path d="M728 231L772 135L673 77Z" fill="#0c2435" stroke="#0c2435"></path><path d="M673 77L576 0L615 109Z" fill="#112e42" stroke="#112e42"></path><path d="M136 96L137 164L218 124Z" fill="#15384f" stroke="#15384f"></path><path d="M218 124L137 164L220 167Z" fill="#297ea6" stroke="#297ea6"></path><path d="M799 373L820 268L731 305Z" fill="#081a28" stroke="#081a28"></path><path d="M436 0L293 0L310 61Z" fill="#0c2435" stroke="#0c2435"></path><path d="M310 61L226 0L218 124Z" fill="#19435d" stroke="#19435d"></path><path d="M830 194L772 135L728 231Z" fill="#205a7a" stroke="#205a7a"></path><path d="M673 77L687 0L576 0Z" fill="#1d4e6b" stroke="#1d4e6b"></path><path d="M766 600L806 492L671 481Z" fill="#297ea6" stroke="#297ea6"></path><path d="M799 373L900 279L820 268Z" fill="#205a7a" stroke="#205a7a"></path><path d="M137 164L66 330L212 329Z" fill="#112e42" stroke="#112e42"></path><path d="M117 378L64 482L160 467Z" fill="#081a28" stroke="#081a28"></path><path d="M160 467L91 600L234 600Z" fill="#0c2435" stroke="#0c2435"></path><path d="M226 0L136 96L218 124Z" fill="#081a28" stroke="#081a28"></path><path d="M0 294L0 379L66 330Z" fill="#1d4e6b" stroke="#1d4e6b"></path><path d="M820 268L830 194L728 231Z" fill="#15384f" stroke="#15384f"></path><path d="M900 279L830 194L820 268Z" fill="#19435d" stroke="#19435d"></path><path d="M681 600L766 600L671 481Z" fill="#19435d" stroke="#19435d"></path><path d="M293 0L226 0L310 61Z" fill="#112e42" stroke="#112e42"></path><path d="M835 0L687 0L772 135Z" fill="#0c2435" stroke="#0c2435"></path><path d="M772 135L687 0L673 77Z" fill="#15384f" stroke="#15384f"></path><path d="M0 379L64 482L117 378Z" fill="#297ea6" stroke="#297ea6"></path><path d="M64 482L91 600L160 467Z" fill="#15384f" stroke="#15384f"></path><path d="M900 422L799 373L806 492Z" fill="#246688" stroke="#246688"></path><path d="M900 422L900 279L799 373Z" fill="#081a28" stroke="#081a28"></path><path d="M830 194L900 103L772 135Z" fill="#081a28" stroke="#081a28"></path><path d="M900 475L900 422L806 492Z" fill="#277297" stroke="#277297"></path><path d="M66 330L0 379L117 378Z" fill="#1d4e6b" stroke="#1d4e6b"></path><path d="M64 482L0 600L91 600Z" fill="#112e42" stroke="#112e42"></path><path d="M0 294L66 330L0 193Z" fill="#0c2435" stroke="#0c2435"></path><path d="M0 193L66 330L137 164Z" fill="#205a7a" stroke="#205a7a"></path><path d="M900 600L900 475L806 492Z" fill="#0c2435" stroke="#0c2435"></path><path d="M226 0L136 0L136 96Z" fill="#19435d" stroke="#19435d"></path><path d="M0 78L0 193L137 164Z" fill="#277297" stroke="#277297"></path><path d="M0 379L0 472L64 482Z" fill="#277297" stroke="#277297"></path><path d="M900 279L900 185L830 194Z" fill="#0c2435" stroke="#0c2435"></path><path d="M0 78L137 164L136 96Z" fill="#15384f" stroke="#15384f"></path><path d="M900 185L900 103L830 194Z" fill="#00101c" stroke="#00101c"></path><path d="M900 103L835 0L772 135Z" fill="#081a28" stroke="#081a28"></path><path d="M766 600L900 600L806 492Z" fill="#246688" stroke="#246688"></path><path d="M0 472L0 600L64 482Z" fill="#277297" stroke="#277297"></path><path d="M136 0L0 78L136 96Z" fill="#112e42" stroke="#112e42"></path><path d="M900 103L900 0L835 0Z" fill="#112e42" stroke="#112e42"></path><path d="M136 0L0 0L0 78Z" fill="#19435d" stroke="#19435d"></path></g></svg>